<svg width="72" height="72" viewBox="0 0 72 72" fill="none" xmlns="http://www.w3.org/2000/svg">
<g clip-path="url(#clip0_1155_1312)">
<path d="M49.2601 23.8504C56.5801 31.1704 56.5801 43.0502 49.2601 50.3702C41.9401 57.6902 30.06 57.6902 22.74 50.3702C15.42 43.0502 15.42 31.1704 22.74 23.8504C30.06 16.5304 41.9401 16.5304 49.2601 23.8504Z" stroke="#B357C2" stroke-width="3" stroke-linecap="round" stroke-linejoin="round"/>
<path d="M24.7529 64.9197C18.7529 62.5197 13.5029 58.1696 10.0229 52.1396C6.6029 46.2296 5.4629 39.6596 6.2729 33.3896" stroke="#B357C2" stroke-width="3" stroke-linecap="round" stroke-linejoin="round"/>
<path d="M17.5547 13.4396C22.6547 9.44958 29.0447 7.07959 36.0047 7.07959C42.8147 7.07959 49.0847 9.38955 54.1247 13.2296" stroke="#B357C2" stroke-width="3" stroke-linecap="round" stroke-linejoin="round"/>
<path d="M47.25 64.9197C53.25 62.5197 58.5 58.1696 61.98 52.1396C65.4 46.2296 66.54 39.6596 65.73 33.3896" stroke="#B357C2" stroke-width="3" stroke-linecap="round" stroke-linejoin="round"/>
</g>
<defs>
<clipPath id="clip0_1155_1312">
<rect width="72" height="72" fill="white"/>
</clipPath>
</defs>
</svg>
